<svg xmlns="http://www.w3.org/2000/svg" version="1.1" xmlns:xlink="http://www.w3.org/1999/xlink" xmlns:svgjs="http://svgjs.dev/svgjs" width="1000" height="623" viewBox="0 0 1000 623"><g transform="matrix(1,0,0,1,-0.6060606060606233,0.2522267206477409)"><svg viewBox="0 0 396 247" data-background-color="#a437db" preserveAspectRatio="xMidYMid meet" height="623" width="1000" xmlns="http://www.w3.org/2000/svg" xmlns:xlink="http://www.w3.org/1999/xlink"><g id="tight-bounds" transform="matrix(1,0,0,1,0.2400000000000091,-0.09999999999999432)"><svg viewBox="0 0 395.52 247.2" height="247.2" width="395.52"><g><svg></svg></g><g><svg viewBox="0 0 395.52 247.2" height="247.2" width="395.52"><g transform="matrix(1,0,0,1,111.9907817142857,47.215199999999996)"><svg viewBox="0 0 171.53843657142858 152.7696" height="152.7696" width="171.53843657142858"><g><svg viewBox="0 0 171.53843657142858 152.7696" height="152.7696" width="171.53843657142858"><g><svg viewBox="0 0 171.53843657142858 152.7696" height="152.7696" width="171.53843657142858"><g><svg viewBox="0 0 171.53843657142858 152.7696" height="152.7696" width="171.53843657142858"><g id="textblocktransform"><svg viewBox="0 0 171.53843657142858 152.7696" height="152.7696" width="171.53843657142858" id="textblock"><g><svg viewBox="0 0 171.53843657142858 152.7696" height="152.7696" width="171.53843657142858"><g transform="matrix(1,0,0,1,0,0)"><svg width="171.53843657142858" viewBox="1.5 -35 39.29999923706055 35" height="152.7696" data-palette-color="#bb84e8"><path d="M12.7-8.35L10.4-8.35 8.05-15.35Q7.85-15.95 7.53-17.18 7.2-18.4 6.8-19.95 6.4-21.5 6-23.08 5.6-24.65 5.28-26 4.95-27.35 4.75-28.18 4.55-29 4.55-29L4.55-29 6.75-35 10.7-22.7Q11.1-21.55 11.35-20.6 11.6-19.65 11.75-19 11.9-18.35 11.98-18 12.05-17.65 12.05-17.65L12.05-17.65Q12.05-17.65 12.1-18 12.15-18.35 12.3-19.03 12.45-19.7 12.68-20.6 12.9-21.5 13.25-22.6L13.25-22.6 16.65-34 19.25-28.9Q19.25-28.9 19.05-28.1 18.85-27.3 18.53-25.98 18.2-24.65 17.8-23.08 17.4-21.5 16.98-19.98 16.55-18.45 16.23-17.23 15.9-16 15.65-15.35L15.65-15.35 13.25-8.7Q13.15-8.35 12.7-8.35L12.7-8.35ZM1.5 0L1.5 0 1.5-34Q1.5-34.75 1.8-34.88 2.1-35 2.5-35L2.5-35 6.75-35 7.05-25.5 5.45-24.45Q5.45-24.45 5.55-23.93 5.65-23.4 5.8-22.43 5.95-21.45 6.13-20.08 6.3-18.7 6.48-17.05 6.65-15.4 6.78-13.5 6.9-11.6 6.9-9.55L6.9-9.55 7.05-1Q7.05-0.5 6.75-0.3 6.45-0.1 5.28-0.05 4.1 0 1.5 0ZM16.6 0L16.6 0 16.85-9.5Q16.9-11.55 17.03-13.43 17.15-15.3 17.32-16.98 17.5-18.65 17.65-20.03 17.8-21.4 17.95-22.38 18.1-23.35 18.2-23.9 18.3-24.45 18.3-24.45L18.3-24.45 16.65-25.6 16.65-34Q16.85-34.55 17.03-34.77 17.2-35 17.65-35L17.65-35Q20-35 20.98-35 21.95-35 22.15-35 22.35-35 22.35-35L22.35-35 22.35-1Q22.35-0.5 22.1-0.3 21.85-0.1 20.68-0.05 19.5 0 16.6 0ZM31.3-13.5L27-13.5Q26.15-13.5 26-13.8 25.85-14.1 25.85-14.9L25.85-14.9 25.85-34Q25.85-34 25.9-34.5 25.95-35 26.75-35L26.75-35 31.05-35Q34.2-35 36.37-34.13 38.55-33.25 39.67-31.03 40.8-28.8 40.8-24.7L40.8-24.7Q40.8-21.3 39.97-19.13 39.15-16.95 37.77-15.73 36.4-14.5 34.72-14 33.05-13.5 31.3-13.5L31.3-13.5ZM25.35 0L25.35 0 25.35-34Q25.35-34.55 25.52-34.77 25.7-35 26.35-35L26.35-35 29.95-35Q30.7-35 30.82-34.5 30.95-34 30.95-34L30.95-34 30.95-1Q30.95-0.5 30.7-0.3 30.45-0.1 29.3-0.05 28.15 0 25.35 0ZM30.95-30.15L30.95-18.65 31.95-18.65Q32.75-18.65 33.3-19.18 33.85-19.7 34.17-21.15 34.5-22.6 34.5-25.4L34.5-25.4Q34.5-27 34.27-28.05 34.05-29.1 33.57-29.63 33.1-30.15 32.3-30.15L32.3-30.15 30.95-30.15Z" opacity="1" transform="matrix(1,0,0,1,0,0)" fill="#bb84e8" class="wordmark-text-0" data-fill-palette-color="primary" id="text-0"></path></svg></g></svg></g></svg></g></svg></g></svg></g></svg></g></svg></g><g><path d="M209.369 0c30.402 0 58.24 10.976 79.768 29.183l-11.147 0c-19.26-14.022-42.974-22.294-68.621-22.295-25.647 0-49.361 8.272-68.621 22.295l-11.147 0c21.528-18.206 49.366-29.183 79.768-29.183zM332.969 123.6c0 26.921-8.607 51.831-23.218 72.13v-12.554c10.373-17.44 16.33-37.812 16.33-59.576 0-21.764-5.957-42.137-16.33-59.576l0-12.554c14.612 20.299 23.218 45.21 23.218 72.13zM209.369 247.2c-30.402 0-58.24-10.976-79.768-29.183l11.147 0c19.26 14.022 42.974 22.294 68.621 22.295 25.647 0 49.361-8.272 68.621-22.295l11.147 0c-21.528 18.206-49.366 29.183-79.768 29.183z" fill="#bb84e8" stroke="transparent" data-fill-palette-color="tertiary"></path></g></svg></g><defs></defs></svg><rect width="395.52" height="247.2" fill="none" stroke="none" visibility="hidden"></rect></g></svg></g></svg>